M48
; DRILL file {KiCad 7.0.1-0} date 2023 April 13, Thursday 21:57:00
; FORMAT={-:-/ absolute / metric / decimal}
; #@! TF.CreationDate,2023-04-13T21:57:00+02:00
; #@! TF.GenerationSoftware,Kicad,Pcbnew,7.0.1-0
; #@! TF.FileFunction,Plated,1,2,PTH
FMAT,2
METRIC
; #@! TA.AperFunction,Plated,PTH,ViaDrill
T1C0.300
; #@! TA.AperFunction,Plated,PTH,ComponentDrill
T2C1.000
%
G90
G05
T1
X114.122Y-58.039
X124.435Y-55.067
X140.208Y-125.984
X140.716Y-51.816
X141.961Y-126.035
X143.18Y-118.44
X145.059Y-126.162
X157.988Y-48.26
X159.512Y-54.864
X160.02Y-59.944
X167.64Y-58.928
X179.984Y-56.236
X181.356Y-70.104
X183.286Y-122.58
T2
X116.332Y-47.244
X116.332Y-49.784
X120.4Y-69.36
X120.4Y-71.9
X120.4Y-74.44
X120.4Y-76.98
X120.4Y-79.52
X120.4Y-82.06
X120.4Y-84.6
X120.4Y-87.14
X120.4Y-89.68
X120.4Y-92.22
X120.4Y-94.76
X120.4Y-97.3
X120.4Y-99.84
X120.4Y-102.38
X120.4Y-104.92
X120.4Y-107.46
X120.4Y-110.0
X120.4Y-112.54
X120.4Y-115.08
X120.4Y-117.62
X120.4Y-120.16
X120.4Y-122.7
X120.4Y-125.24
X120.4Y-127.78
X133.02Y-69.34
X133.02Y-71.88
X133.02Y-74.42
X133.02Y-76.96
X133.02Y-79.5
X133.02Y-82.04
X133.02Y-84.58
X133.02Y-87.12
X133.02Y-89.66
X133.02Y-92.2
X133.02Y-94.74
X133.02Y-97.28
X133.02Y-99.82
X133.02Y-102.36
X133.02Y-104.9
X133.02Y-107.44
X133.02Y-109.98
X133.02Y-112.52
X133.02Y-115.06
X133.02Y-117.6
X133.02Y-120.14
X133.02Y-122.68
X133.02Y-125.22
X133.02Y-127.76
X151.6Y-69.34
X151.6Y-71.88
X151.6Y-74.42
X151.6Y-76.96
X151.6Y-79.5
X151.6Y-82.04
X151.6Y-84.58
X151.6Y-87.12
X151.6Y-89.66
X151.6Y-92.2
X151.6Y-94.74
X151.6Y-97.28
X151.6Y-99.82
X151.6Y-102.36
X151.6Y-104.9
X151.6Y-107.44
X151.6Y-109.98
X151.6Y-112.52
X151.6Y-115.06
X151.6Y-117.6
X151.6Y-120.14
X151.6Y-122.68
X151.6Y-125.22
X151.6Y-127.76
X163.4Y-69.34
X163.4Y-71.88
X163.4Y-74.42
X163.4Y-76.96
X163.4Y-79.5
X163.4Y-82.04
X163.4Y-84.58
X163.4Y-87.12
X163.4Y-89.66
X163.4Y-92.2
X163.4Y-94.74
X163.4Y-97.28
X163.4Y-99.82
X163.4Y-102.36
X163.4Y-104.9
X163.4Y-107.44
X163.4Y-109.98
X163.4Y-112.52
X163.4Y-115.06
X163.4Y-117.6
X163.4Y-120.14
X163.4Y-122.68
X163.4Y-125.22
X163.4Y-127.76
X169.164Y-71.12
X169.164Y-73.66
X169.164Y-76.2
X169.164Y-78.74
X169.164Y-81.28
X169.164Y-83.82
X169.164Y-86.36
X169.164Y-88.9
X169.164Y-91.44
X169.164Y-93.98
X176.276Y-49.276
X178.816Y-49.276
X179.832Y-94.488
X181.356Y-49.276
X182.372Y-94.488
X183.896Y-49.276
X184.35Y-111.075
X184.35Y-113.615
T0
M30
