%TF.GenerationSoftware,KiCad,Pcbnew,7.0.1*%
%TF.CreationDate,2023-03-21T02:42:04+02:00*%
%TF.ProjectId,Main,4d61696e-2e6b-4696-9361-645f70636258,V01*%
%TF.SameCoordinates,Original*%
%TF.FileFunction,Soldermask,Bot*%
%TF.FilePolarity,Negative*%
%FSLAX46Y46*%
G04 Gerber Fmt 4.6, Leading zero omitted, Abs format (unit mm)*
G04 Created by KiCad (PCBNEW 7.0.1) date 2023-03-21 02:42:04*
%MOMM*%
%LPD*%
G01*
G04 APERTURE LIST*
G04 Aperture macros list*
%AMRoundRect*
0 Rectangle with rounded corners*
0 $1 Rounding radius*
0 $2 $3 $4 $5 $6 $7 $8 $9 X,Y pos of 4 corners*
0 Add a 4 corners polygon primitive as box body*
4,1,4,$2,$3,$4,$5,$6,$7,$8,$9,$2,$3,0*
0 Add four circle primitives for the rounded corners*
1,1,$1+$1,$2,$3*
1,1,$1+$1,$4,$5*
1,1,$1+$1,$6,$7*
1,1,$1+$1,$8,$9*
0 Add four rect primitives between the rounded corners*
20,1,$1+$1,$2,$3,$4,$5,0*
20,1,$1+$1,$4,$5,$6,$7,0*
20,1,$1+$1,$6,$7,$8,$9,0*
20,1,$1+$1,$8,$9,$2,$3,0*%
G04 Aperture macros list end*
%ADD10RoundRect,0.150000X-0.850000X-0.850000X0.850000X-0.850000X0.850000X0.850000X-0.850000X0.850000X0*%
%ADD11O,2.000000X2.000000*%
%ADD12C,3.750000*%
%ADD13C,2.690000*%
%ADD14RoundRect,0.150000X0.850000X0.850000X-0.850000X0.850000X-0.850000X-0.850000X0.850000X-0.850000X0*%
%ADD15RoundRect,0.150000X-0.850000X0.850000X-0.850000X-0.850000X0.850000X-0.850000X0.850000X0.850000X0*%
%ADD16RoundRect,0.150000X0.850000X-0.850000X0.850000X0.850000X-0.850000X0.850000X-0.850000X-0.850000X0*%
%ADD17C,1.300000*%
G04 APERTURE END LIST*
D10*
%TO.C,J13*%
X184350000Y-111075000D03*
D11*
X184350000Y-113615000D03*
%TD*%
D10*
%TO.C,J3-Left1*%
X120400000Y-69360000D03*
D11*
X120400000Y-71900000D03*
X120400000Y-74440000D03*
X120400000Y-76980000D03*
X120400000Y-79520000D03*
X120400000Y-82060000D03*
X120400000Y-84600000D03*
X120400000Y-87140000D03*
X120400000Y-89680000D03*
X120400000Y-92220000D03*
X120400000Y-94760000D03*
X120400000Y-97300000D03*
X120400000Y-99840000D03*
X120400000Y-102380000D03*
X120400000Y-104920000D03*
X120400000Y-107460000D03*
X120400000Y-110000000D03*
X120400000Y-112540000D03*
X120400000Y-115080000D03*
X120400000Y-117620000D03*
X120400000Y-120160000D03*
X120400000Y-122700000D03*
X120400000Y-125240000D03*
X120400000Y-127780000D03*
%TD*%
D12*
%TO.C,BT1*%
X113410000Y-118710000D03*
X97410000Y-63510000D03*
D13*
X113410000Y-55180000D03*
%TD*%
D10*
%TO.C,J6-Right1*%
X163400000Y-69340000D03*
D11*
X163400000Y-71880000D03*
X163400000Y-74420000D03*
X163400000Y-76960000D03*
X163400000Y-79500000D03*
X163400000Y-82040000D03*
X163400000Y-84580000D03*
X163400000Y-87120000D03*
X163400000Y-89660000D03*
X163400000Y-92200000D03*
X163400000Y-94740000D03*
X163400000Y-97280000D03*
X163400000Y-99820000D03*
X163400000Y-102360000D03*
X163400000Y-104900000D03*
X163400000Y-107440000D03*
X163400000Y-109980000D03*
X163400000Y-112520000D03*
X163400000Y-115060000D03*
X163400000Y-117600000D03*
X163400000Y-120140000D03*
X163400000Y-122680000D03*
X163400000Y-125220000D03*
X163400000Y-127760000D03*
%TD*%
D14*
%TO.C,J2*%
X116332000Y-49784000D03*
D11*
X116332000Y-47244000D03*
%TD*%
D15*
%TO.C,J8*%
X183896000Y-49276000D03*
D11*
X181356000Y-49276000D03*
X178816000Y-49276000D03*
X176276000Y-49276000D03*
%TD*%
D16*
%TO.C,J9*%
X179832000Y-94488000D03*
D11*
X182372000Y-94488000D03*
%TD*%
D10*
%TO.C,J4-Left1*%
X133020000Y-69340000D03*
D11*
X133020000Y-71880000D03*
X133020000Y-74420000D03*
X133020000Y-76960000D03*
X133020000Y-79500000D03*
X133020000Y-82040000D03*
X133020000Y-84580000D03*
X133020000Y-87120000D03*
X133020000Y-89660000D03*
X133020000Y-92200000D03*
X133020000Y-94740000D03*
X133020000Y-97280000D03*
X133020000Y-99820000D03*
X133020000Y-102360000D03*
X133020000Y-104900000D03*
X133020000Y-107440000D03*
X133020000Y-109980000D03*
X133020000Y-112520000D03*
X133020000Y-115060000D03*
X133020000Y-117600000D03*
X133020000Y-120140000D03*
X133020000Y-122680000D03*
X133020000Y-125220000D03*
X133020000Y-127760000D03*
%TD*%
D17*
%TO.C,J1*%
X140040000Y-130556000D03*
X144440000Y-130556000D03*
%TD*%
D10*
%TO.C,J7*%
X169164000Y-71120000D03*
D11*
X169164000Y-73660000D03*
X169164000Y-76200000D03*
X169164000Y-78740000D03*
X169164000Y-81280000D03*
X169164000Y-83820000D03*
X169164000Y-86360000D03*
X169164000Y-88900000D03*
X169164000Y-91440000D03*
X169164000Y-93980000D03*
%TD*%
D10*
%TO.C,J5-Right1*%
X151600000Y-69340000D03*
D11*
X151600000Y-71880000D03*
X151600000Y-74420000D03*
X151600000Y-76960000D03*
X151600000Y-79500000D03*
X151600000Y-82040000D03*
X151600000Y-84580000D03*
X151600000Y-87120000D03*
X151600000Y-89660000D03*
X151600000Y-92200000D03*
X151600000Y-94740000D03*
X151600000Y-97280000D03*
X151600000Y-99820000D03*
X151600000Y-102360000D03*
X151600000Y-104900000D03*
X151600000Y-107440000D03*
X151600000Y-109980000D03*
X151600000Y-112520000D03*
X151600000Y-115060000D03*
X151600000Y-117600000D03*
X151600000Y-120140000D03*
X151600000Y-122680000D03*
X151600000Y-125220000D03*
X151600000Y-127760000D03*
%TD*%
M02*
