%TF.GenerationSoftware,KiCad,Pcbnew,7.0.1*%
%TF.CreationDate,2023-03-21T02:42:01+02:00*%
%TF.ProjectId,Main,4d61696e-2e6b-4696-9361-645f70636258,V01*%
%TF.SameCoordinates,Original*%
%TF.FileFunction,Soldermask,Top*%
%TF.FilePolarity,Negative*%
%FSLAX46Y46*%
G04 Gerber Fmt 4.6, Leading zero omitted, Abs format (unit mm)*
G04 Created by KiCad (PCBNEW 7.0.1) date 2023-03-21 02:42:01*
%MOMM*%
%LPD*%
G01*
G04 APERTURE LIST*
G04 Aperture macros list*
%AMRoundRect*
0 Rectangle with rounded corners*
0 $1 Rounding radius*
0 $2 $3 $4 $5 $6 $7 $8 $9 X,Y pos of 4 corners*
0 Add a 4 corners polygon primitive as box body*
4,1,4,$2,$3,$4,$5,$6,$7,$8,$9,$2,$3,0*
0 Add four circle primitives for the rounded corners*
1,1,$1+$1,$2,$3*
1,1,$1+$1,$4,$5*
1,1,$1+$1,$6,$7*
1,1,$1+$1,$8,$9*
0 Add four rect primitives between the rounded corners*
20,1,$1+$1,$2,$3,$4,$5,0*
20,1,$1+$1,$4,$5,$6,$7,0*
20,1,$1+$1,$6,$7,$8,$9,0*
20,1,$1+$1,$8,$9,$2,$3,0*%
%AMFreePoly0*
4,1,20,-0.103741,0.342787,-0.044027,0.306197,0.255998,0.006197,0.288517,-0.042468,0.299936,-0.099873,0.299936,-0.200000,0.288518,-0.257403,0.256002,-0.306066,0.207339,-0.338582,0.149936,-0.350000,-0.150089,-0.350000,-0.207492,-0.338582,-0.256155,-0.306066,-0.288671,-0.257403,-0.300089,-0.200000,-0.300089,0.200127,-0.283741,0.268224,-0.238259,0.321478,-0.173558,0.348280,-0.103741,0.342787,
-0.103741,0.342787,$1*%
%AMFreePoly1*
4,1,22,0.207238,0.288722,0.255901,0.256206,0.288417,0.207543,0.299835,0.150140,0.299835,-0.200000,0.288417,-0.257403,0.255901,-0.306066,0.207238,-0.338582,0.149835,-0.350000,-0.150191,-0.350000,-0.207594,-0.338582,-0.256257,-0.306066,-0.288773,-0.257403,-0.300191,-0.200000,-0.300191,-0.099873,-0.288773,-0.042470,-0.256257,0.006193,-0.006244,0.256206,0.042419,0.288722,0.099822,0.300140,
0.149835,0.300140,0.207238,0.288722,0.207238,0.288722,$1*%
%AMFreePoly2*
4,1,22,0.207238,0.338582,0.255901,0.306066,0.288417,0.257403,0.299835,0.200000,0.299835,-0.149886,0.288417,-0.207289,0.255901,-0.255952,0.207238,-0.288468,0.149835,-0.299886,0.099822,-0.299886,0.042419,-0.288468,-0.006244,-0.255952,-0.256257,-0.005939,-0.288773,0.042724,-0.300191,0.100127,-0.300191,0.200000,-0.288773,0.257403,-0.256257,0.306066,-0.207594,0.338582,-0.150191,0.350000,
0.149835,0.350000,0.207238,0.338582,0.207238,0.338582,$1*%
%AMFreePoly3*
4,1,22,0.207339,0.338582,0.256002,0.306066,0.288518,0.257403,0.299936,0.200000,0.299936,0.100127,0.288518,0.042725,0.256002,-0.005939,0.005990,-0.255952,-0.042673,-0.288468,-0.100076,-0.299886,-0.150089,-0.299886,-0.207492,-0.288468,-0.256155,-0.255952,-0.288671,-0.207289,-0.300089,-0.149886,-0.300089,0.200000,-0.288671,0.257403,-0.256155,0.306066,-0.207492,0.338582,-0.150089,0.350000,
0.149936,0.350000,0.207339,0.338582,0.207339,0.338582,$1*%
G04 Aperture macros list end*
%ADD10RoundRect,0.150000X0.742507X0.863995X-0.742507X0.863995X-0.742507X-0.863995X0.742507X-0.863995X0*%
%ADD11O,2.250216X0.868402*%
%ADD12RoundRect,0.150000X-0.863995X0.742507X-0.863995X-0.742507X0.863995X-0.742507X0.863995X0.742507X0*%
%ADD13RoundRect,0.300000X-0.512500X-0.150000X0.512500X-0.150000X0.512500X0.150000X-0.512500X0.150000X0*%
%ADD14RoundRect,0.150000X0.250000X0.270002X-0.250000X0.270002X-0.250000X-0.270002X0.250000X-0.270002X0*%
%ADD15RoundRect,0.150000X0.282829X0.270002X-0.282829X0.270002X-0.282829X-0.270002X0.282829X-0.270002X0*%
%ADD16RoundRect,0.150000X0.403238X0.432004X-0.403238X0.432004X-0.403238X-0.432004X0.403238X-0.432004X0*%
%ADD17RoundRect,0.150000X-0.450000X0.400000X-0.450000X-0.400000X0.450000X-0.400000X0.450000X0.400000X0*%
%ADD18RoundRect,0.150000X-0.270002X0.225000X-0.270002X-0.225000X0.270002X-0.225000X0.270002X0.225000X0*%
%ADD19RoundRect,0.150000X-0.270002X0.282829X-0.270002X-0.282829X0.270002X-0.282829X0.270002X0.282829X0*%
%ADD20RoundRect,0.150000X0.270002X-0.282829X0.270002X0.282829X-0.270002X0.282829X-0.270002X-0.282829X0*%
%ADD21RoundRect,0.150000X0.270002X-0.250000X0.270002X0.250000X-0.270002X0.250000X-0.270002X-0.250000X0*%
%ADD22RoundRect,0.150000X0.395047X0.270002X-0.395047X0.270002X-0.395047X-0.270002X0.395047X-0.270002X0*%
%ADD23RoundRect,0.150000X-0.282829X-0.270002X0.282829X-0.270002X0.282829X0.270002X-0.282829X0.270002X0*%
%ADD24RoundRect,0.150000X-0.250000X-0.270002X0.250000X-0.270002X0.250000X0.270002X-0.250000X0.270002X0*%
%ADD25RoundRect,0.150000X-0.850000X-0.850000X0.850000X-0.850000X0.850000X0.850000X-0.850000X0.850000X0*%
%ADD26O,2.000000X2.000000*%
%ADD27RoundRect,0.150000X0.350470X0.270002X-0.350470X0.270002X-0.350470X-0.270002X0.350470X-0.270002X0*%
%ADD28RoundRect,0.150000X0.650000X-1.100025X0.650000X1.100025X-0.650000X1.100025X-0.650000X-1.100025X0*%
%ADD29RoundRect,0.150000X0.300000X-0.175006X0.300000X0.175006X-0.300000X0.175006X-0.300000X-0.175006X0*%
%ADD30RoundRect,0.150000X0.250000X0.250000X-0.250000X0.250000X-0.250000X-0.250000X0.250000X-0.250000X0*%
%ADD31RoundRect,0.150000X-0.350470X-0.270002X0.350470X-0.270002X0.350470X0.270002X-0.350470X0.270002X0*%
%ADD32RoundRect,0.150000X-0.395047X-0.270002X0.395047X-0.270002X0.395047X0.270002X-0.395047X0.270002X0*%
%ADD33RoundRect,0.150000X-0.250000X-0.250000X0.250000X-0.250000X0.250000X0.250000X-0.250000X0.250000X0*%
%ADD34RoundRect,0.232500X0.082500X0.117500X-0.082500X0.117500X-0.082500X-0.117500X0.082500X-0.117500X0*%
%ADD35RoundRect,0.225000X0.075000X0.125000X-0.075000X0.125000X-0.075000X-0.125000X0.075000X-0.125000X0*%
%ADD36RoundRect,0.150000X-0.270002X0.250000X-0.270002X-0.250000X0.270002X-0.250000X0.270002X0.250000X0*%
%ADD37RoundRect,0.150000X0.450000X-0.400000X0.450000X0.400000X-0.450000X0.400000X-0.450000X-0.400000X0*%
%ADD38RoundRect,0.150000X-0.603759X-0.850508X0.603759X-0.850508X0.603759X0.850508X-0.603759X0.850508X0*%
%ADD39O,0.859995X2.045009*%
%ADD40RoundRect,0.150000X-0.742507X-0.863995X0.742507X-0.863995X0.742507X0.863995X-0.742507X0.863995X0*%
%ADD41RoundRect,0.150000X0.500000X0.625006X-0.500000X0.625006X-0.500000X-0.625006X0.500000X-0.625006X0*%
%ADD42RoundRect,0.150000X-3.175000X3.670000X-3.175000X-3.670000X3.175000X-3.670000X3.175000X3.670000X0*%
%ADD43C,3.750000*%
%ADD44C,2.690000*%
%ADD45RoundRect,0.150000X0.566268X0.688506X-0.566268X0.688506X-0.566268X-0.688506X0.566268X-0.688506X0*%
%ADD46RoundRect,0.150000X0.850000X0.850000X-0.850000X0.850000X-0.850000X-0.850000X0.850000X-0.850000X0*%
%ADD47RoundRect,0.150000X-0.850000X0.850000X-0.850000X-0.850000X0.850000X-0.850000X0.850000X0.850000X0*%
%ADD48RoundRect,0.150000X0.850000X-0.850000X0.850000X0.850000X-0.850000X0.850000X-0.850000X-0.850000X0*%
%ADD49RoundRect,0.300000X0.150000X0.650000X-0.150000X0.650000X-0.150000X-0.650000X0.150000X-0.650000X0*%
%ADD50RoundRect,0.237500X0.187500X0.087500X-0.187500X0.087500X-0.187500X-0.087500X0.187500X-0.087500X0*%
%ADD51RoundRect,0.232500X0.082500X-0.082500X0.082500X0.082500X-0.082500X0.082500X-0.082500X-0.082500X0*%
%ADD52C,1.300000*%
%ADD53RoundRect,0.150000X-0.250000X-1.000000X0.250000X-1.000000X0.250000X1.000000X-0.250000X1.000000X0*%
%ADD54RoundRect,0.150000X-1.000000X-0.850000X1.000000X-0.850000X1.000000X0.850000X-1.000000X0.850000X0*%
%ADD55RoundRect,0.150000X0.603759X0.850508X-0.603759X0.850508X-0.603759X-0.850508X0.603759X-0.850508X0*%
%ADD56FreePoly0,180.000000*%
%ADD57FreePoly1,270.000000*%
%ADD58FreePoly2,0.000000*%
%ADD59FreePoly3,90.000000*%
%ADD60RoundRect,0.150000X0.000000X-0.070711X0.070711X0.000000X0.000000X0.070711X-0.070711X0.000000X0*%
%ADD61RoundRect,0.150000X0.850000X-1.100000X0.850000X1.100000X-0.850000X1.100000X-0.850000X-1.100000X0*%
G04 APERTURE END LIST*
D10*
%TO.C,C6*%
X179407166Y-129871000D03*
X176222000Y-129871000D03*
%TD*%
D11*
%TO.C,U7*%
X140716000Y-116585997D03*
X140716000Y-117856000D03*
X140716000Y-119126002D03*
X140716000Y-120396005D03*
X146126210Y-120396005D03*
X146126210Y-119126002D03*
X146126210Y-117856000D03*
X146126210Y-116585997D03*
%TD*%
D12*
%TO.C,C3*%
X168750000Y-51400000D03*
X168750000Y-54585166D03*
%TD*%
D13*
%TO.C,U4*%
X130556000Y-52616817D03*
X130556000Y-54516817D03*
X128281000Y-54516817D03*
X128281000Y-53566817D03*
X128281000Y-52616817D03*
%TD*%
D14*
%TO.C,R9*%
X168042817Y-115089000D03*
D15*
X167177183Y-115089000D03*
%TD*%
D16*
%TO.C,R4*%
X163150000Y-51950000D03*
X161643268Y-51950000D03*
%TD*%
D17*
%TO.C,C1*%
X119750000Y-58180810D03*
X119750000Y-59580860D03*
%TD*%
D18*
%TO.C,R19*%
X146304000Y-111760000D03*
D19*
X146304000Y-110894366D03*
%TD*%
D20*
%TO.C,R23*%
X184696000Y-126198634D03*
D21*
X184696000Y-125333000D03*
%TD*%
D22*
%TO.C,C2*%
X134545830Y-48928817D03*
X135636000Y-48928817D03*
%TD*%
D23*
%TO.C,R13*%
X178625183Y-90336000D03*
D24*
X179490817Y-90336000D03*
%TD*%
D25*
%TO.C,J13*%
X184350000Y-111075000D03*
D26*
X184350000Y-113615000D03*
%TD*%
D22*
%TO.C,C10*%
X177722000Y-55170000D03*
D27*
X176631830Y-55170000D03*
%TD*%
D28*
%TO.C,U6*%
X162684203Y-54890160D03*
D29*
X161284152Y-55880000D03*
X161284152Y-55220107D03*
X161284152Y-54560213D03*
X161284152Y-53900066D03*
X164084254Y-53900066D03*
X164084254Y-54560213D03*
X164084254Y-55220107D03*
X164084000Y-55880000D03*
%TD*%
D23*
%TO.C,R14*%
X182689183Y-90336000D03*
D24*
X183554817Y-90336000D03*
%TD*%
D30*
%TO.C,R28*%
X183925634Y-53296000D03*
D15*
X183060000Y-53296000D03*
%TD*%
D31*
%TO.C,C11*%
X176631830Y-61266000D03*
D32*
X177722000Y-61266000D03*
%TD*%
D24*
%TO.C,R24*%
X168752366Y-112599000D03*
X169618000Y-112599000D03*
%TD*%
D33*
%TO.C,R10*%
X138432817Y-58000000D03*
D23*
X137567183Y-58000000D03*
%TD*%
D34*
%TO.C,C8*%
X166966000Y-126633000D03*
D35*
X166326000Y-126633000D03*
%TD*%
D19*
%TO.C,R20*%
X146304000Y-107112817D03*
D36*
X146304000Y-106247183D03*
%TD*%
D37*
%TO.C,C7*%
X187452000Y-80772000D03*
X187452000Y-82172050D03*
%TD*%
D38*
%TO.C,Rprog1*%
X133694418Y-52484817D03*
X136652000Y-52484817D03*
%TD*%
D25*
%TO.C,J3-Left1*%
X120400000Y-69360000D03*
D26*
X120400000Y-71900000D03*
X120400000Y-74440000D03*
X120400000Y-76980000D03*
X120400000Y-79520000D03*
X120400000Y-82060000D03*
X120400000Y-84600000D03*
X120400000Y-87140000D03*
X120400000Y-89680000D03*
X120400000Y-92220000D03*
X120400000Y-94760000D03*
X120400000Y-97300000D03*
X120400000Y-99840000D03*
X120400000Y-102380000D03*
X120400000Y-104920000D03*
X120400000Y-107460000D03*
X120400000Y-110000000D03*
X120400000Y-112540000D03*
X120400000Y-115080000D03*
X120400000Y-117620000D03*
X120400000Y-120160000D03*
X120400000Y-122700000D03*
X120400000Y-125240000D03*
X120400000Y-127780000D03*
%TD*%
D39*
%TO.C,U1*%
X172190991Y-125758492D03*
X173460994Y-125758492D03*
X174730996Y-125758492D03*
X176000999Y-125758492D03*
X177271001Y-125758492D03*
X178541004Y-125758492D03*
X179811006Y-125758492D03*
X181081009Y-125758492D03*
X181081009Y-120013508D03*
X179811006Y-120013508D03*
X178541004Y-120013508D03*
X177271001Y-120013508D03*
X176000999Y-120013508D03*
X174730996Y-120013508D03*
X173460994Y-120013508D03*
X172190991Y-120013508D03*
%TD*%
D14*
%TO.C,R22*%
X167346000Y-117983000D03*
D15*
X166480366Y-117983000D03*
%TD*%
D40*
%TO.C,C4*%
X159512000Y-57404000D03*
X156326834Y-57404000D03*
%TD*%
D15*
%TO.C,R7*%
X154034366Y-61936000D03*
D30*
X154900000Y-61936000D03*
%TD*%
D41*
%TO.C,StatusLED*%
X129371848Y-48928817D03*
X131572000Y-48928817D03*
%TD*%
D42*
%TO.C,BT1*%
X105410000Y-130440000D03*
X105410000Y-51780000D03*
D43*
X113410000Y-118710000D03*
X97410000Y-63510000D03*
D44*
X113410000Y-55180000D03*
%TD*%
D45*
%TO.C,R12*%
X184240000Y-79536000D03*
X182240000Y-79536000D03*
%TD*%
%TO.C,R11*%
X182240000Y-82584000D03*
X184240000Y-82584000D03*
%TD*%
D25*
%TO.C,J6-Right1*%
X163400000Y-69340000D03*
D26*
X163400000Y-71880000D03*
X163400000Y-74420000D03*
X163400000Y-76960000D03*
X163400000Y-79500000D03*
X163400000Y-82040000D03*
X163400000Y-84580000D03*
X163400000Y-87120000D03*
X163400000Y-89660000D03*
X163400000Y-92200000D03*
X163400000Y-94740000D03*
X163400000Y-97280000D03*
X163400000Y-99820000D03*
X163400000Y-102360000D03*
X163400000Y-104900000D03*
X163400000Y-107440000D03*
X163400000Y-109980000D03*
X163400000Y-112520000D03*
X163400000Y-115060000D03*
X163400000Y-117600000D03*
X163400000Y-120140000D03*
X163400000Y-122680000D03*
X163400000Y-125220000D03*
X163400000Y-127760000D03*
%TD*%
D20*
%TO.C,R27*%
X123950000Y-61965634D03*
D21*
X123950000Y-61100000D03*
%TD*%
D46*
%TO.C,J2*%
X116332000Y-49784000D03*
D26*
X116332000Y-47244000D03*
%TD*%
D47*
%TO.C,J8*%
X183896000Y-49276000D03*
D26*
X181356000Y-49276000D03*
X178816000Y-49276000D03*
X176276000Y-49276000D03*
%TD*%
D48*
%TO.C,J9*%
X179832000Y-94488000D03*
D26*
X182372000Y-94488000D03*
%TD*%
D23*
%TO.C,R18*%
X140283183Y-108204000D03*
D24*
X141148817Y-108204000D03*
%TD*%
D49*
%TO.C,U3*%
X183351000Y-69500000D03*
D50*
X182426000Y-70000000D03*
X182426000Y-69000000D03*
X184276000Y-69000000D03*
X184276000Y-70000000D03*
%TD*%
D51*
%TO.C,R2*%
X116840000Y-65181000D03*
X116840000Y-64541000D03*
%TD*%
D23*
%TO.C,R8*%
X170134366Y-61550000D03*
D33*
X171000000Y-61550000D03*
%TD*%
D25*
%TO.C,J4-Left1*%
X133020000Y-69340000D03*
D26*
X133020000Y-71880000D03*
X133020000Y-74420000D03*
X133020000Y-76960000D03*
X133020000Y-79500000D03*
X133020000Y-82040000D03*
X133020000Y-84580000D03*
X133020000Y-87120000D03*
X133020000Y-89660000D03*
X133020000Y-92200000D03*
X133020000Y-94740000D03*
X133020000Y-97280000D03*
X133020000Y-99820000D03*
X133020000Y-102360000D03*
X133020000Y-104900000D03*
X133020000Y-107440000D03*
X133020000Y-109980000D03*
X133020000Y-112520000D03*
X133020000Y-115060000D03*
X133020000Y-117600000D03*
X133020000Y-120140000D03*
X133020000Y-122680000D03*
X133020000Y-125220000D03*
X133020000Y-127760000D03*
%TD*%
D24*
%TO.C,R15*%
X187593817Y-90336000D03*
D23*
X186728183Y-90336000D03*
%TD*%
D36*
%TO.C,R25*%
X180196000Y-112883000D03*
D19*
X180196000Y-113748634D03*
%TD*%
D23*
%TO.C,R6*%
X144422366Y-47244000D03*
D24*
X145288000Y-47244000D03*
%TD*%
D23*
%TO.C,R21*%
X143764000Y-122936000D03*
D24*
X142898366Y-122936000D03*
%TD*%
D35*
%TO.C,R3*%
X117856000Y-66040000D03*
X118496000Y-66040000D03*
%TD*%
D23*
%TO.C,R17*%
X140283183Y-111252000D03*
D24*
X141148817Y-111252000D03*
%TD*%
D10*
%TO.C,C5*%
X170702583Y-129363000D03*
X167517417Y-129363000D03*
%TD*%
D52*
%TO.C,J1*%
X140040000Y-130556000D03*
X144440000Y-130556000D03*
D53*
X140640000Y-127856000D03*
X141440000Y-127856000D03*
X142240000Y-127856000D03*
X143040000Y-127856000D03*
X143840000Y-127856000D03*
D54*
X137790000Y-127956000D03*
X137790000Y-133406000D03*
X146690000Y-127956000D03*
X146690000Y-133406000D03*
%TD*%
D25*
%TO.C,J7*%
X169164000Y-71120000D03*
D26*
X169164000Y-73660000D03*
X169164000Y-76200000D03*
X169164000Y-78740000D03*
X169164000Y-81280000D03*
X169164000Y-83820000D03*
X169164000Y-86360000D03*
X169164000Y-88900000D03*
X169164000Y-91440000D03*
X169164000Y-93980000D03*
%TD*%
D25*
%TO.C,J5-Right1*%
X151600000Y-69340000D03*
D26*
X151600000Y-71880000D03*
X151600000Y-74420000D03*
X151600000Y-76960000D03*
X151600000Y-79500000D03*
X151600000Y-82040000D03*
X151600000Y-84580000D03*
X151600000Y-87120000D03*
X151600000Y-89660000D03*
X151600000Y-92200000D03*
X151600000Y-94740000D03*
X151600000Y-97280000D03*
X151600000Y-99820000D03*
X151600000Y-102360000D03*
X151600000Y-104900000D03*
X151600000Y-107440000D03*
X151600000Y-109980000D03*
X151600000Y-112520000D03*
X151600000Y-115060000D03*
X151600000Y-117600000D03*
X151600000Y-120140000D03*
X151600000Y-122680000D03*
X151600000Y-125220000D03*
X151600000Y-127760000D03*
%TD*%
D55*
%TO.C,R1*%
X126446791Y-48928817D03*
X123489209Y-48928817D03*
%TD*%
D45*
%TO.C,R5*%
X164068000Y-59944000D03*
X162068000Y-59944000D03*
%TD*%
D56*
%TO.C,U5*%
X176650000Y-58724994D03*
D57*
X177276112Y-58724994D03*
D58*
X177276112Y-58075006D03*
D59*
X176650000Y-58075006D03*
D60*
X176962929Y-58399873D03*
%TD*%
D33*
%TO.C,R16*%
X133717183Y-58000000D03*
D23*
X134582817Y-58000000D03*
%TD*%
D61*
%TO.C,D1*%
X119850000Y-55180810D03*
X119850000Y-50050000D03*
%TD*%
M02*
