%TF.GenerationSoftware,KiCad,Pcbnew,7.0.1-0*%
%TF.CreationDate,2023-04-13T21:49:40+02:00*%
%TF.ProjectId,Main,4d61696e-2e6b-4696-9361-645f70636258,V01*%
%TF.SameCoordinates,Original*%
%TF.FileFunction,Paste,Top*%
%TF.FilePolarity,Positive*%
%FSLAX46Y46*%
G04 Gerber Fmt 4.6, Leading zero omitted, Abs format (unit mm)*
G04 Created by KiCad (PCBNEW 7.0.1-0) date 2023-04-13 21:49:40*
%MOMM*%
%LPD*%
G01*
G04 APERTURE LIST*
G04 Aperture macros list*
%AMRoundRect*
0 Rectangle with rounded corners*
0 $1 Rounding radius*
0 $2 $3 $4 $5 $6 $7 $8 $9 X,Y pos of 4 corners*
0 Add a 4 corners polygon primitive as box body*
4,1,4,$2,$3,$4,$5,$6,$7,$8,$9,$2,$3,0*
0 Add four circle primitives for the rounded corners*
1,1,$1+$1,$2,$3*
1,1,$1+$1,$4,$5*
1,1,$1+$1,$6,$7*
1,1,$1+$1,$8,$9*
0 Add four rect primitives between the rounded corners*
20,1,$1+$1,$2,$3,$4,$5,0*
20,1,$1+$1,$4,$5,$6,$7,0*
20,1,$1+$1,$6,$7,$8,$9,0*
20,1,$1+$1,$8,$9,$2,$3,0*%
%AMRotRect*
0 Rectangle, with rotation*
0 The origin of the aperture is its center*
0 $1 length*
0 $2 width*
0 $3 Rotation angle, in degrees counterclockwise*
0 Add horizontal line*
21,1,$1,$2,0,0,$3*%
%AMFreePoly0*
4,1,5,0.149936,-0.099873,0.149936,-0.200000,-0.150089,-0.200000,-0.150089,0.200127,0.149936,-0.099873,0.149936,-0.099873,$1*%
%AMFreePoly1*
4,1,6,0.149835,-0.200000,-0.150191,-0.200000,-0.150191,-0.099873,0.099822,0.150140,0.149835,0.150140,0.149835,-0.200000,0.149835,-0.200000,$1*%
%AMFreePoly2*
4,1,6,0.149835,-0.149886,0.099822,-0.149886,-0.150191,0.100127,-0.150191,0.200000,0.149835,0.200000,0.149835,-0.149886,0.149835,-0.149886,$1*%
%AMFreePoly3*
4,1,6,0.149936,0.100127,-0.100076,-0.149886,-0.150089,-0.149886,-0.150089,0.200000,0.149936,0.200000,0.149936,0.100127,0.149936,0.100127,$1*%
G04 Aperture macros list end*
%ADD10R,1.727991X1.485014*%
%ADD11RoundRect,0.150000X-0.512500X-0.150000X0.512500X-0.150000X0.512500X0.150000X-0.512500X0.150000X0*%
%ADD12R,0.500000X0.540005*%
%ADD13R,0.565659X0.540005*%
%ADD14R,0.806477X0.864008*%
%ADD15R,0.900000X0.800000*%
%ADD16R,0.540005X0.565659*%
%ADD17R,0.540005X0.450000*%
%ADD18R,0.540005X0.500000*%
%ADD19R,0.790094X0.540005*%
%ADD20R,0.700940X0.540005*%
%ADD21R,0.600000X0.350013*%
%ADD22R,1.300000X2.200050*%
%ADD23R,0.500000X0.500000*%
%ADD24RoundRect,0.079500X0.079500X0.100500X-0.079500X0.100500X-0.079500X-0.100500X0.079500X-0.100500X0*%
%ADD25R,1.207518X1.701016*%
%ADD26O,0.559995X1.745009*%
%ADD27R,1.485014X1.727991*%
%ADD28R,1.000000X1.250013*%
%ADD29R,6.350000X7.340000*%
%ADD30R,1.132537X1.377013*%
%ADD31RoundRect,0.087500X0.187500X0.087500X-0.187500X0.087500X-0.187500X-0.087500X0.187500X-0.087500X0*%
%ADD32RoundRect,0.125000X0.125000X0.575000X-0.125000X0.575000X-0.125000X-0.575000X0.125000X-0.575000X0*%
%ADD33RoundRect,0.087500X-0.187500X-0.087500X0.187500X-0.087500X0.187500X0.087500X-0.187500X0.087500X0*%
%ADD34RoundRect,0.079500X0.100500X-0.079500X0.100500X0.079500X-0.100500X0.079500X-0.100500X-0.079500X0*%
%ADD35R,0.500000X2.000000*%
%ADD36R,2.000000X1.700000*%
%ADD37O,1.950216X0.568402*%
%ADD38FreePoly0,180.000000*%
%ADD39FreePoly1,270.000000*%
%ADD40FreePoly2,0.000000*%
%ADD41FreePoly3,90.000000*%
%ADD42RotRect,0.100000X0.100000X45.000000*%
%ADD43R,1.700000X2.200000*%
G04 APERTURE END LIST*
D10*
%TO.C,C3*%
X168750000Y-51400000D03*
X168750000Y-54585166D03*
%TD*%
D11*
%TO.C,U4*%
X128281000Y-52616817D03*
X128281000Y-53566817D03*
X128281000Y-54516817D03*
X130556000Y-54516817D03*
X130556000Y-52616817D03*
%TD*%
D12*
%TO.C,R9*%
X168042817Y-115089000D03*
D13*
X167177183Y-115089000D03*
%TD*%
D14*
%TO.C,R4*%
X163150000Y-51950000D03*
X161643268Y-51950000D03*
%TD*%
D15*
%TO.C,C1*%
X119750000Y-58180810D03*
X119750000Y-59580860D03*
%TD*%
D16*
%TO.C,R19*%
X146304000Y-110894366D03*
D17*
X146304000Y-111760000D03*
%TD*%
D16*
%TO.C,R23*%
X184696000Y-126198634D03*
D18*
X184696000Y-125333000D03*
%TD*%
D19*
%TO.C,C2*%
X135636000Y-48928817D03*
X134545830Y-48928817D03*
%TD*%
D13*
%TO.C,R13*%
X178625183Y-90336000D03*
D12*
X179490817Y-90336000D03*
%TD*%
D19*
%TO.C,C10*%
X177722000Y-55170000D03*
D20*
X176631830Y-55170000D03*
%TD*%
D21*
%TO.C,U6*%
X164084000Y-55880000D03*
X164084254Y-55220107D03*
X164084254Y-54560213D03*
X164084254Y-53900066D03*
X161284152Y-53900066D03*
X161284152Y-54560213D03*
X161284152Y-55220107D03*
X161284152Y-55880000D03*
D22*
X162684203Y-54890160D03*
%TD*%
D13*
%TO.C,R14*%
X182689183Y-90336000D03*
D12*
X183554817Y-90336000D03*
%TD*%
D23*
%TO.C,R28*%
X183925634Y-53296000D03*
D13*
X183060000Y-53296000D03*
%TD*%
D20*
%TO.C,C11*%
X176631830Y-61266000D03*
D19*
X177722000Y-61266000D03*
%TD*%
D12*
%TO.C,R24*%
X168752366Y-112599000D03*
X169618000Y-112599000D03*
%TD*%
D13*
%TO.C,R10*%
X137567183Y-58000000D03*
D23*
X138432817Y-58000000D03*
%TD*%
D24*
%TO.C,C8*%
X166991000Y-126633000D03*
X166301000Y-126633000D03*
%TD*%
D18*
%TO.C,R20*%
X146304000Y-106247183D03*
D16*
X146304000Y-107112817D03*
%TD*%
D15*
%TO.C,C7*%
X187452000Y-82172050D03*
X187452000Y-80772000D03*
%TD*%
D25*
%TO.C,Rprog1*%
X133694418Y-52484817D03*
X136652000Y-52484817D03*
%TD*%
D26*
%TO.C,U1*%
X172190991Y-125758492D03*
X173460994Y-125758492D03*
X174730996Y-125758492D03*
X176000999Y-125758492D03*
X177271001Y-125758492D03*
X178541004Y-125758492D03*
X179811006Y-125758492D03*
X181081009Y-125758492D03*
X181081009Y-120013508D03*
X179811006Y-120013508D03*
X178541004Y-120013508D03*
X177271001Y-120013508D03*
X176000999Y-120013508D03*
X174730996Y-120013508D03*
X173460994Y-120013508D03*
X172190991Y-120013508D03*
%TD*%
D12*
%TO.C,R22*%
X167346000Y-117983000D03*
D13*
X166480366Y-117983000D03*
%TD*%
D27*
%TO.C,C6*%
X179407166Y-129871000D03*
X176222000Y-129871000D03*
%TD*%
%TO.C,C4*%
X156326834Y-57404000D03*
X159512000Y-57404000D03*
%TD*%
D23*
%TO.C,R7*%
X154900000Y-61936000D03*
D13*
X154034366Y-61936000D03*
%TD*%
D28*
%TO.C,StatusLED*%
X129371848Y-48928817D03*
X131572000Y-48928817D03*
%TD*%
D29*
%TO.C,BT1*%
X105410000Y-51780000D03*
X105410000Y-130440000D03*
%TD*%
D30*
%TO.C,R12*%
X184240000Y-79536000D03*
X182240000Y-79536000D03*
%TD*%
%TO.C,R11*%
X184240000Y-82584000D03*
X182240000Y-82584000D03*
%TD*%
D16*
%TO.C,R27*%
X123950000Y-61965634D03*
D18*
X123950000Y-61100000D03*
%TD*%
D13*
%TO.C,R18*%
X140283183Y-108204000D03*
D12*
X141148817Y-108204000D03*
%TD*%
D31*
%TO.C,U3*%
X184376000Y-70000000D03*
X184376000Y-69000000D03*
D32*
X183351000Y-69500000D03*
D33*
X182326000Y-70000000D03*
X182326000Y-69000000D03*
%TD*%
D34*
%TO.C,R2*%
X116840000Y-65206000D03*
X116840000Y-64516000D03*
%TD*%
D13*
%TO.C,R8*%
X170134366Y-61550000D03*
D23*
X171000000Y-61550000D03*
%TD*%
D13*
%TO.C,R15*%
X186728183Y-90336000D03*
D12*
X187593817Y-90336000D03*
%TD*%
D18*
%TO.C,R25*%
X180196000Y-112883000D03*
D16*
X180196000Y-113748634D03*
%TD*%
D13*
%TO.C,R6*%
X144422366Y-47244000D03*
D12*
X145288000Y-47244000D03*
%TD*%
%TO.C,R21*%
X142898366Y-122936000D03*
D13*
X143764000Y-122936000D03*
%TD*%
D24*
%TO.C,R3*%
X118521000Y-66040000D03*
X117831000Y-66040000D03*
%TD*%
D13*
%TO.C,R17*%
X140283183Y-111252000D03*
D12*
X141148817Y-111252000D03*
%TD*%
D27*
%TO.C,C5*%
X170702583Y-129363000D03*
X167517417Y-129363000D03*
%TD*%
D35*
%TO.C,J1*%
X140640000Y-127856000D03*
X141440000Y-127856000D03*
X142240000Y-127856000D03*
X143040000Y-127856000D03*
X143840000Y-127856000D03*
D36*
X137790000Y-127956000D03*
X137790000Y-133406000D03*
X146690000Y-127956000D03*
X146690000Y-133406000D03*
%TD*%
D25*
%TO.C,R1*%
X126446791Y-48928817D03*
X123489209Y-48928817D03*
%TD*%
D37*
%TO.C,U7*%
X140716000Y-116585997D03*
X140716000Y-117856000D03*
X140716000Y-119126002D03*
X140716000Y-120396005D03*
X146126210Y-120396005D03*
X146126210Y-119126002D03*
X146126210Y-117856000D03*
X146126210Y-116585997D03*
%TD*%
D30*
%TO.C,R5*%
X164068000Y-59944000D03*
X162068000Y-59944000D03*
%TD*%
D38*
%TO.C,U5*%
X176650000Y-58724994D03*
D39*
X177276112Y-58724994D03*
D40*
X177276112Y-58075006D03*
D41*
X176650000Y-58075006D03*
D42*
X176962929Y-58399873D03*
%TD*%
D23*
%TO.C,R16*%
X133717183Y-58000000D03*
D13*
X134582817Y-58000000D03*
%TD*%
D43*
%TO.C,D1*%
X119850000Y-55180810D03*
X119850000Y-50050000D03*
%TD*%
M02*
